<svg id="coin_copy_7" data-name="coin copy 7" xmlns="http://www.w3.org/2000/svg" width="14" height="14" viewBox="0 0 14 14">
  <circle id="Oval_Copy_2" data-name="Oval Copy 2" cx="6.65" cy="6.65" r="6.65" transform="translate(0.7 0.7)" fill="#ffc850"/>
  <circle id="Oval" cx="5.25" cy="5.25" r="5.25" transform="translate(1.4 2.8)" fill="#dd992b"/>
  <circle id="Oval_Copy_3" data-name="Oval Copy 3" cx="5.25" cy="5.25" r="5.25" transform="translate(2.1 2.1)" fill="#ffdc64"/>
  <path id="Shape" d="M7.648,8.023a.26.26,0,0,0-.2-.1,5.44,5.44,0,0,1-5.3-5.4A5.279,5.279,0,0,1,2.622.334a.236.236,0,0,0-.342-.3A4.9,4.9,0,0,0,.029,4.707,4.977,4.977,0,0,0,4.242,9.043,5.033,5.033,0,0,0,7.57,8.4a.256.256,0,0,0,.078-.377Z" transform="translate(2.8 2.8)" fill="#ffc850"/>
  <path id="Shape-2" data-name="Shape" d="M6.842,3.192a.558.558,0,0,0,.132-.558.525.525,0,0,0-.421-.371L4.821,2a.1.1,0,0,1-.079-.059L3.968.3a.513.513,0,0,0-.936,0L2.257,1.941A.1.1,0,0,1,2.179,2L.447,2.263a.525.525,0,0,0-.421.371.558.558,0,0,0,.132.558L1.411,4.467a.112.112,0,0,1,.03.1l-.3,1.8a.553.553,0,0,0,.208.533.5.5,0,0,0,.549.042l1.549-.85a.1.1,0,0,1,.1,0l1.549.85a.5.5,0,0,0,.55-.042.553.553,0,0,0,.208-.533l-.3-1.8a.112.112,0,0,1,.03-.1Z" transform="translate(4.2 3.5)" fill="#ee9400"/>
  <path id="moon-stars-path" d="M3.771,3.75,2.8,6.3,1.829,3.75,0,3.15l1.829-.6L2.8,0l.971,2.55,1.829.6-1.829.6Z" fill="#fff"/>
</svg>
