<svg xmlns="http://www.w3.org/2000/svg" width="50" height="50" viewBox="0 0 50 50">
  <g id="G_" data-name="G+" transform="translate(0 0)">
    <circle id="Oval" cx="25" cy="25" r="25" transform="translate(0 0)" fill="#fc3850"/>
    <path id="Path" d="M7.34,25.78A8.427,8.427,0,0,1,1.79,24.034,4.828,4.828,0,0,1,0,20.408a4.765,4.765,0,0,1,2.686-4.3A12.019,12.019,0,0,1,8.235,14.5a2.385,2.385,0,0,1-.537-1.79,1.615,1.615,0,0,1,.179-.9H7.161a5.7,5.7,0,0,1-4.207-1.679A5.328,5.328,0,0,1,1.432,6.445a6.283,6.283,0,0,1,1.79-4.364A7.558,7.558,0,0,1,8.772,0h7.519l-.537.537L14.5,1.79l-.179.179H13.069A5.387,5.387,0,0,1,14.68,5.908c0,2.427-1.145,3.688-2.865,4.834a1.505,1.505,0,0,0-.715,1.253,1.218,1.218,0,0,0,.715,1.075,3.888,3.888,0,0,0,.9.536l.233.174.06.044c1.385,1.025,3.108,2.3,3.108,4.974a6.474,6.474,0,0,1-1.969,4.7A9.562,9.562,0,0,1,7.34,25.78Zm2.148-9.668a13.185,13.185,0,0,0-3.222.537c-.808.231-2.686.99-2.686,3.044A3.491,3.491,0,0,0,4.923,22.4a6.249,6.249,0,0,0,4.029,1.231,4.641,4.641,0,0,0,3.155-1.119,3.365,3.365,0,0,0,1.142-2.462c0-1.239-.844-2.109-3.223-3.938ZM7.34,1.969a2.134,2.134,0,0,0-1.566.649,3.369,3.369,0,0,0-.76,2.395,7.208,7.208,0,0,0,.85,3.4,3.147,3.147,0,0,0,2.73,1.79,3.086,3.086,0,0,0,1.254-.426A2.658,2.658,0,0,0,11.1,7.339a7.625,7.625,0,0,0-.873-3.356A3.364,3.364,0,0,0,7.34,1.969Z" transform="translate(14.968 13.36)" fill="#fff"/>
    <path id="Path-2" data-name="Path" d="M8.951,5.371H5.371v3.58H3.58V5.371H0V3.58H3.58V0h1.79V3.58h3.58v1.79Z" transform="translate(31.08 20.879)" fill="#fff"/>
  </g>
</svg>
