<svg xmlns="http://www.w3.org/2000/svg" width="28" height="20" viewBox="0 0 28 20">
  <path id="Shape" d="M15.5,20H4.5a4.353,4.353,0,0,1-3.18-1.32A4.353,4.353,0,0,1,0,15.5V4.5A4.353,4.353,0,0,1,1.32,1.32,4.353,4.353,0,0,1,4.5,0h11a4.353,4.353,0,0,1,3.18,1.32A4.353,4.353,0,0,1,20,4.5V7.078L26.3.8A.933.933,0,0,1,27,.5a1.089,1.089,0,0,1,.391.077A.938.938,0,0,1,28,1.5v17a.938.938,0,0,1-.609.922A1.079,1.079,0,0,1,27,19.5a.931.931,0,0,1-.7-.3l-6.3-6.3V15.5A4.508,4.508,0,0,1,15.5,20Zm-.59-16.364a.909.909,0,0,0,0,1.819h.049a.909.909,0,0,0,0-1.819Zm-10.267,0a.909.909,0,0,0,0,1.819h6.582a.909.909,0,0,0,0-1.819Z" fill="#fff"/>
</svg>
