<svg id="video-camera" xmlns="http://www.w3.org/2000/svg" xmlns:xlink="http://www.w3.org/1999/xlink" width="56" height="56" viewBox="0 0 56 56">
  <defs>
    <linearGradient id="linear-gradient" x1="0.933" y1="0.15" x2="-0.196" y2="0.824" gradientUnits="objectBoundingBox">
      <stop offset="0" stop-color="#b83af3"/>
      <stop offset="1" stop-color="#6950fb"/>
    </linearGradient>
  </defs>
  <circle id="Oval_Copy" data-name="Oval Copy" cx="28" cy="28" r="28" fill="url(#linear-gradient)"/>
  <path id="Shape" d="M16.607,22H4.821a4.6,4.6,0,0,1-3.407-1.452A4.854,4.854,0,0,1,0,17.05V4.95a4.853,4.853,0,0,1,1.415-3.5A4.6,4.6,0,0,1,4.821,0H16.607a4.6,4.6,0,0,1,3.407,1.453,4.853,4.853,0,0,1,1.415,3.5V7.786L28.175.877A.986.986,0,0,1,28.929.55a1.129,1.129,0,0,1,.419.086A1.031,1.031,0,0,1,30,1.65v18.7a1.033,1.033,0,0,1-.653,1.014,1.138,1.138,0,0,1-.419.086.986.986,0,0,1-.753-.327L21.429,14.2V17.05a4.855,4.855,0,0,1-1.415,3.5A4.6,4.6,0,0,1,16.607,22ZM16,4a1,1,0,1,0,1,1A1,1,0,0,0,16,4ZM5,4A1,1,0,1,0,5,6h7a1,1,0,0,0,0-2Z" transform="translate(13 17)" fill="#fff"/>
</svg>
