<svg id="Icons_discover_copy" data-name="Icons/discover copy" xmlns="http://www.w3.org/2000/svg" xmlns:xlink="http://www.w3.org/1999/xlink" width="22.007" height="19.069" viewBox="0 0 22.007 19.069">
  <defs>
    <linearGradient id="linear-gradient" x1="0.919" y1="0.128" x2="-0.217" y2="0.805" gradientUnits="objectBoundingBox">
      <stop offset="0" stop-color="#b83af3"/>
      <stop offset="1" stop-color="#6950fb"/>
    </linearGradient>
    <clipPath id="clip-path">
      <path id="Path_2" data-name="Path 2" d="M.576,1.774A.923.923,0,0,1,1.787.56L21.92,9.175a.922.922,0,0,1,0,1.7l-20.157,8.6A.923.923,0,0,1,.549,18.266L3.422,11.5a.923.923,0,0,1,.8-.561l2.245-.109a.922.922,0,0,0,.012-1.842L4.2,8.851a.923.923,0,0,1-.79-.554Z" transform="translate(-0.473 -0.483)" fill="url(#linear-gradient)"/>
    </clipPath>
  </defs>
  <path id="Path_2-2" data-name="Path 2" d="M.576,1.774A.923.923,0,0,1,1.787.56L21.92,9.175a.922.922,0,0,1,0,1.7l-20.157,8.6A.923.923,0,0,1,.549,18.266L3.422,11.5a.923.923,0,0,1,.8-.561l2.245-.109a.922.922,0,0,0,.012-1.842L4.2,8.851a.923.923,0,0,1-.79-.554Z" transform="translate(-0.473 -0.483)" fill="url(#linear-gradient)"/>
</svg>
