<svg xmlns="http://www.w3.org/2000/svg" width="50" height="50" viewBox="0 0 50 50">
  <g id="Twitter" transform="translate(0 0)">
    <circle id="Oval_Copy" data-name="Oval Copy" cx="25" cy="25" r="25" transform="translate(0 0)" fill="#4fc4ff"/>
    <path id="Path" d="M22.852,5.175C22.656,14.159,16.992,20.409,8.4,20.8A14.216,14.216,0,0,1,0,18.456a10.369,10.369,0,0,0,7.617-2.148A5.276,5.276,0,0,1,2.734,12.6a7.878,7.878,0,0,0,2.148,0,5.32,5.32,0,0,1-4.1-5.273,3.937,3.937,0,0,0,2.148.586C1.172,6.932,0,3.221,1.367.878A15.477,15.477,0,0,0,12.109,6.346c-1.367-5.469,6.055-8.4,8.984-4.687A13.158,13.158,0,0,0,24.414.487a5.522,5.522,0,0,1-2.148,2.93A11.2,11.2,0,0,0,25,2.635c-.2.977-1.172,1.758-2.148,2.539Z" transform="translate(12.5 15)" fill="#fff"/>
  </g>
</svg>
